<?xml version="1.0" standalone="no"?>
<!DOCTYPE svg PUBLIC "-//W3C//DTD SVG 20010904//EN"
 "http://www.w3.org/TR/2001/REC-SVG-20010904/DTD/svg10.dtd">
<svg version="1.0" xmlns="http://www.w3.org/2000/svg"
 width="512.000000pt" height="512.000000pt" viewBox="0 0 512.000000 512.000000"
 preserveAspectRatio="xMidYMid meet">

<g transform="translate(0.000000,512.000000) scale(0.100000,-0.100000)"
fill="#000000" stroke="none">
<path d="M1272 5100 c-195 -51 -338 -185 -397 -373 -53 -167 -21 -367 81 -503
l23 -31 -72 -37 c-95 -48 -156 -102 -210 -184 -56 -87 -82 -148 -101 -247 -9
-44 -32 -311 -51 -592 -33 -467 -34 -515 -20 -542 8 -16 24 -32 35 -36 20 -6
20 -13 20 -1223 0 -781 4 -1230 10 -1253 6 -20 20 -45 31 -55 20 -18 46 -19
527 -22 369 -2 514 1 535 9 50 21 59 55 55 208 -3 121 -6 142 -29 191 -34 74
-81 125 -146 162 l-53 30 0 924 0 923 31 16 c42 22 56 62 64 185 4 58 9 108
12 112 3 6 156 -63 172 -78 3 -3 -1 -10 -7 -16 -7 -7 -12 -29 -12 -51 0 -29 7
-46 29 -68 l29 -29 154 0 c173 0 214 -8 264 -52 67 -59 68 -66 118 -543 26
-242 53 -462 62 -490 33 -105 113 -197 209 -241 85 -39 153 -49 252 -35 47 7
87 10 89 8 14 -14 -39 -40 -151 -77 -71 -23 -160 -59 -196 -81 -119 -69 -219
-201 -254 -334 -22 -84 -22 -600 0 -631 30 -43 51 -45 476 -42 l404 3 50 27
c64 34 108 80 137 143 19 42 23 72 26 178 l4 127 47 0 47 0 18 -137 c22 -162
43 -218 101 -272 66 -60 115 -71 330 -71 168 0 184 2 225 23 57 29 82 64 88
125 6 67 -18 114 -84 163 -29 22 -55 47 -58 55 -3 9 -6 154 -6 322 0 333 -7
395 -55 500 -14 31 -44 80 -66 109 -32 43 -38 57 -29 72 18 34 11 70 -19 103
-25 28 -36 33 -75 33 -81 0 -71 37 36 145 93 93 113 142 106 260 -5 93 -28
137 -120 236 -87 92 -139 118 -253 121 -89 2 -90 2 -151 48 -79 57 -129 75
-229 82 -183 12 -349 -75 -455 -239 -52 -79 -74 -163 -74 -278 -1 -148 30
-243 134 -414 27 -46 50 -86 50 -89 0 -10 -171 -29 -209 -22 -22 4 -58 20 -80
36 -75 54 -78 64 -127 538 -24 234 -51 455 -60 490 -9 35 -32 85 -50 113 l-33
49 34 45 c38 49 65 127 65 184 0 54 -26 131 -59 177 -18 25 -142 124 -329 263
l-300 223 -7 61 c-19 169 -71 321 -149 429 l-53 74 56 29 c73 38 178 143 219
221 121 229 84 482 -97 664 -146 146 -336 199 -529 149z m293 -225 c71 -34
147 -119 175 -193 18 -47 21 -73 18 -142 -3 -73 -9 -94 -38 -148 -39 -73 -92
-124 -170 -161 -47 -22 -68 -26 -145 -26 -78 1 -97 4 -145 28 -75 39 -143 108
-177 181 -24 52 -28 74 -28 146 0 72 4 93 27 140 39 79 88 132 156 168 104 55
223 58 327 7z m-245 -882 c176 -59 289 -242 307 -498 3 -49 10 -100 14 -113 5
-12 96 -87 206 -169 109 -81 203 -152 208 -159 6 -6 62 -50 126 -98 128 -94
144 -117 125 -176 -13 -40 -67 -74 -103 -65 -44 10 -675 325 -722 359 -71 53
-112 122 -181 306 -34 91 -71 175 -82 187 -28 30 -69 37 -111 19 -40 -16 -57
-41 -57 -85 0 -35 109 -332 148 -406 27 -49 141 -173 195 -210 l29 -20 -8 -97
c-6 -91 -8 -98 -28 -98 -37 0 -659 60 -663 64 -9 8 58 895 72 958 27 126 102
235 195 283 85 44 228 51 330 18z m-225 -1508 c110 -8 203 -15 208 -15 4 0 7
-414 7 -920 l0 -920 -259 0 -259 0 -4 933 c-2 512 -2 935 0 940 2 4 27 5 55 2
29 -3 142 -12 252 -20z m2323 -325 c23 -17 63 -45 88 -62 44 -32 49 -33 145
-34 111 0 114 -2 190 -97 62 -77 57 -103 -37 -196 -87 -85 -114 -136 -122
-228 -5 -69 -3 -68 -92 -78 -30 -4 -63 -9 -72 -11 -15 -4 -17 4 -16 63 1 55
-9 101 -51 237 -28 94 -59 178 -68 188 -25 28 -80 39 -117 24 -77 -32 -80 -70
-17 -274 57 -186 56 -194 -10 -242 -50 -36 -35 -49 -138 130 -83 145 -101 197
-101 295 0 93 22 153 77 215 99 110 242 139 341 70z m429 -931 c56 -59 98
-127 114 -184 8 -26 12 -162 13 -380 1 -332 2 -341 23 -382 13 -23 27 -44 33
-48 28 -18 1 -25 -95 -25 -98 0 -105 1 -119 23 -14 22 -46 233 -70 470 -13
118 -16 131 -42 158 -40 41 -103 41 -145 0 -27 -27 -29 -35 -29 -100 l0 -71
-38 0 c-33 0 -40 4 -57 36 -29 54 -106 118 -165 137 -34 11 -86 17 -150 17
-82 0 -101 -3 -123 -20 -38 -30 -52 -80 -33 -123 21 -51 59 -67 156 -67 77 0
83 -2 111 -29 l29 -29 0 -172 c0 -104 -4 -179 -11 -192 -23 -43 -59 -48 -384
-48 l-305 0 0 188 c0 249 19 315 118 404 54 49 73 58 237 112 154 52 214 82
233 118 6 13 19 56 27 97 9 41 17 76 18 76 4 3 561 83 584 84 15 1 39 -16 70
-50z m-2391 -825 c53 -25 78 -68 82 -141 l4 -63 -381 0 -381 0 0 110 0 110
321 0 c275 0 326 -2 355 -16z"/>
</g>
</svg>
