<?xml version="1.0" standalone="no"?>
<!DOCTYPE svg PUBLIC "-//W3C//DTD SVG 20010904//EN"
 "http://www.w3.org/TR/2001/REC-SVG-20010904/DTD/svg10.dtd">
<svg version="1.0" xmlns="http://www.w3.org/2000/svg"
 width="512.000000pt" height="512.000000pt" viewBox="0 0 512.000000 512.000000"
 preserveAspectRatio="xMidYMid meet">

<g transform="translate(0.000000,512.000000) scale(0.100000,-0.100000)"
fill="#000000" stroke="none">
<path d="M1354 5089 c-253 -31 -445 -254 -444 -516 0 -82 16 -148 54 -234 6
-13 -1 -18 -33 -23 -165 -26 -342 -160 -422 -317 -54 -107 -438 -1046 -463
-1132 -62 -214 -59 -429 10 -647 38 -122 73 -187 285 -525 l189 -303 0 -643
c0 -621 1 -645 20 -676 30 -50 64 -55 387 -51 l285 3 29 33 29 32 0 732 0 731
-96 526 -96 525 35 86 c19 47 38 83 43 80 5 -3 70 -71 146 -151 150 -159 195
-191 294 -208 147 -27 297 49 364 184 22 43 25 64 25 150 0 139 -11 158 -220
381 l-173 183 24 133 c42 231 47 280 35 357 -14 88 -35 151 -72 219 l-29 52
27 11 c223 82 355 266 355 494 0 319 -269 554 -588 514z m213 -230 c231 -110
238 -439 11 -565 -48 -26 -62 -29 -148 -29 -79 0 -103 4 -142 23 -109 54 -170
149 -176 272 -5 97 21 171 82 234 103 105 238 129 373 65z m-343 -767 c127
-59 214 -173 236 -307 11 -66 11 -68 -31 -304 -46 -258 -60 -218 149 -438 228
-241 222 -233 222 -299 0 -45 -5 -59 -31 -89 -49 -56 -128 -66 -187 -23 -10 7
-103 103 -207 213 -150 160 -194 213 -219 265 -31 65 -31 65 -32 245 -2 226 1
208 -30 239 -38 37 -93 36 -136 -3 l-33 -29 -3 -179 c-4 -202 7 -272 59 -375
l31 -61 -42 -98 -42 -98 -36 15 c-21 8 -157 65 -304 126 -148 61 -268 116
-268 123 0 14 340 837 371 897 11 21 35 56 54 77 122 135 320 177 479 103z
m-650 -1415 l320 -133 93 -504 92 -505 1 -652 0 -653 -175 0 -175 0 0 611 0
611 -205 329 c-114 180 -222 362 -241 403 -53 117 -77 230 -78 371 0 134 20
256 42 255 4 0 151 -60 326 -133z"/>
<path d="M3605 2210 c-56 -12 -358 -145 -410 -180 -24 -16 -60 -49 -80 -72
-39 -44 -95 -151 -95 -179 0 -9 -27 -39 -59 -68 -43 -37 -69 -71 -93 -119 -31
-62 -33 -74 -33 -167 0 -87 3 -107 27 -157 67 -143 218 -225 386 -208 l52 6 0
-161 c0 -214 53 -808 74 -840 26 -39 79 -47 313 -43 l215 3 27 31 c25 27 29
44 40 140 7 60 17 153 23 207 l11 97 198 0 c180 0 198 -2 203 -17 2 -10 21
-97 41 -193 20 -96 41 -188 47 -203 21 -55 30 -57 304 -57 l251 0 27 26 26 27
0 504 c0 535 -3 571 -49 661 l-18 35 33 55 c62 102 68 226 18 330 -59 120
-180 105 -204 -26 -10 -56 -42 -112 -64 -112 -7 0 -42 13 -77 29 -100 45 -150
51 -412 51 l-242 0 0 97 c0 96 -1 101 -49 208 -60 135 -94 186 -154 230 -77
57 -191 84 -277 65z m152 -222 c20 -12 41 -39 57 -71 90 -192 96 -226 43 -284
-29 -31 -40 -36 -80 -37 -83 -2 -89 7 -217 307 l-29 68 27 11 c78 31 100 37
132 31 19 -3 49 -14 67 -25z m-342 -264 c38 -85 81 -175 97 -199 57 -86 199
-146 303 -129 27 5 214 9 415 9 l365 0 65 -31 c111 -52 176 -124 219 -237 20
-56 21 -73 21 -482 l0 -425 -120 0 c-66 0 -120 3 -120 8 0 4 -18 91 -40 192
-34 157 -40 202 -40 303 0 118 0 119 -29 148 -49 49 -128 35 -160 -28 -6 -12
-11 -51 -11 -87 l0 -66 -254 0 -253 0 -26 -24 c-14 -13 -29 -35 -31 -48 -5
-18 -46 -376 -46 -393 0 -3 -49 -5 -109 -5 l-110 0 -6 53 c-23 203 -38 431
-44 670 l-6 279 -30 25 c-28 25 -32 25 -115 18 -158 -15 -216 -12 -246 11 -44
32 -66 68 -71 117 -8 67 11 111 69 160 83 69 97 84 103 114 18 86 30 110 75
156 26 26 52 47 57 47 6 0 41 -70 78 -156z"/>
<path d="M1833 921 c-30 -19 -37 -36 -118 -288 -47 -147 -102 -315 -121 -373
-19 -58 -34 -121 -34 -141 0 -48 37 -86 93 -94 23 -3 347 -5 720 -3 l679 3 29
33 c17 18 29 44 29 59 0 28 -223 730 -246 774 -7 15 -28 32 -45 38 -22 7 -181
11 -493 11 -439 0 -463 -1 -493 -19z m954 -433 l81 -253 -531 -3 c-291 -1
-532 -1 -534 1 -3 3 40 141 138 445 l21 62 372 0 372 0 81 -252z"/>
</g>
</svg>
