<?xml version="1.0" standalone="no"?>
<!DOCTYPE svg PUBLIC "-//W3C//DTD SVG 20010904//EN"
 "http://www.w3.org/TR/2001/REC-SVG-20010904/DTD/svg10.dtd">
<svg version="1.0" xmlns="http://www.w3.org/2000/svg"
 width="512.000000pt" height="512.000000pt" viewBox="0 0 512.000000 512.000000"
 preserveAspectRatio="xMidYMid meet">

<g transform="translate(0.000000,512.000000) scale(0.100000,-0.100000)"
fill="#000000" stroke="none">
<path d="M2222 5109 c-30 -5 -88 -21 -130 -35 -211 -70 -403 -253 -484 -462
-49 -124 -58 -199 -58 -461 0 -258 -8 -312 -57 -404 -34 -62 -127 -148 -195
-180 -39 -18 -151 -42 -428 -92 -838 -149 -790 -137 -810 -191 -6 -16 -10
-631 -10 -1621 l0 -1595 34 -34 34 -34 1161 2 1161 3 27 28 c27 27 28 29 34
200 14 363 70 679 184 1034 54 169 82 206 180 242 169 63 289 179 346 336 19
50 23 88 27 227 l4 168 -30 30 c-25 25 -38 30 -79 30 -47 0 -49 1 -74 48 -74
133 -205 241 -350 287 -44 14 -89 25 -100 25 -10 0 -19 3 -19 6 0 12 213 348
247 391 48 60 117 90 228 98 232 16 428 146 524 348 22 45 44 106 50 135 6 30
11 163 11 307 l0 253 -26 31 -26 31 -233 0 -233 0 -19 33 c-119 199 -352 327
-593 327 l-70 0 0 210 c0 141 -4 218 -12 235 -23 52 -89 65 -216 44z m28 -418
c0 -208 0 -210 25 -239 l24 -29 153 -6 c170 -6 248 -24 330 -76 66 -42 130
-112 167 -181 54 -101 51 -100 292 -100 l209 0 0 -160 c0 -167 -10 -240 -41
-302 -16 -31 -25 -38 -49 -38 -44 0 -130 36 -179 75 -72 58 -157 43 -181 -31
-24 -70 11 -120 128 -187 l57 -31 -40 -12 c-22 -7 -63 -13 -91 -13 -140 -2
-255 -50 -347 -143 -34 -35 -71 -81 -82 -103 -16 -32 -110 -191 -120 -203 -2
-2 -153 90 -336 204 l-334 206 -55 -5 c-62 -5 -163 -48 -228 -96 -55 -40 -125
-136 -153 -209 -20 -52 -23 -82 -30 -337 -7 -274 -15 -346 -51 -449 -7 -21
-20 -43 -28 -47 -8 -4 -73 -35 -145 -69 -303 -143 -556 -330 -798 -589 l-82
-88 -3 860 c-1 473 -1 862 1 863 1 2 231 44 511 94 279 50 529 98 554 106 119
40 233 135 327 275 83 121 87 143 95 484 7 285 9 304 33 375 37 109 72 166
151 246 83 84 222 161 294 163 l22 1 0 -209z m-183 -2147 c60 -47 118 -91 131
-97 17 -8 65 -6 185 6 183 18 225 14 322 -32 81 -38 141 -102 195 -208 43 -85
47 -89 92 -103 l48 -15 0 -67 c0 -44 -7 -87 -21 -123 -26 -71 -102 -154 -166
-182 -26 -12 -73 -33 -104 -46 -121 -53 -183 -135 -245 -323 -112 -341 -181
-698 -200 -1034 l-7 -120 -187 0 -188 0 -5 148 c-3 105 -11 170 -26 227 -25
93 -96 244 -139 295 -26 31 -35 35 -77 35 -39 0 -51 -5 -71 -28 -36 -42 -31
-84 20 -180 69 -128 88 -200 93 -359 l6 -138 -718 0 c-640 0 -717 2 -711 15 3
9 15 48 27 88 167 558 519 987 1026 1254 159 83 218 126 318 228 193 196 285
431 285 726 0 66 2 119 5 119 3 0 53 -39 112 -86z"/>
<path d="M2464 4046 c-31 -31 -34 -39 -34 -95 0 -101 31 -141 110 -141 33 0
48 6 71 29 26 27 29 36 29 95 0 77 -14 112 -51 132 -48 24 -87 18 -125 -20z"/>
<path d="M2389 2161 c-54 -54 -36 -118 49 -172 59 -37 110 -39 145 -4 29 30
36 58 25 103 -7 24 -22 41 -63 67 -70 45 -115 47 -156 6z"/>
</g>
</svg>
